<?xml version="1.0" encoding="UTF-8"?>
<!DOCTYPE svg PUBLIC "-//W3C//DTD SVG 1.1//EN" "http://www.w3.org/Graphics/SVG/1.1/DTD/svg11.dtd">
<svg xmlns="http://www.w3.org/2000/svg" version="1.1" width="500px" height="85px" style="shape-rendering:geometricPrecision; text-rendering:geometricPrecision; image-rendering:optimizeQuality; fill-rule:evenodd; clip-rule:evenodd" xmlns:xlink="http://www.w3.org/1999/xlink">
<g><path style="opacity:1" fill="#fefdfe" d="M -0.5,-0.5 C 166.167,-0.5 332.833,-0.5 499.5,-0.5C 499.5,27.8333 499.5,56.1667 499.5,84.5C 332.833,84.5 166.167,84.5 -0.5,84.5C -0.5,77.1667 -0.5,69.8333 -0.5,62.5C 15.1667,62.5 30.8333,62.5 46.5,62.5C 47.5,62.5 48.5,62.5 49.5,62.5C 54.5,62.5 59.5,62.5 64.5,62.5C 64.5,44.1667 64.5,25.8333 64.5,7.5C 42.8333,7.5 21.1667,7.5 -0.5,7.5C -0.5,4.83333 -0.5,2.16667 -0.5,-0.5 Z"/></g>
<g><path style="opacity:1" fill="#8d54ff" d="M 364.5,53.5 C 364.5,47.1667 364.5,40.8333 364.5,34.5C 363.167,34.5 361.833,34.5 360.5,34.5C 358.974,33.5081 358.307,32.0081 358.5,30C 358.307,27.9919 358.974,26.4919 360.5,25.5C 361.833,25.5 363.167,25.5 364.5,25.5C 364.5,23.5 364.5,21.5 364.5,19.5C 365.717,12.9577 369.717,9.62437 376.5,9.5C 382.155,9.88215 383.989,12.8822 382,18.5C 379.865,20.2785 377.365,20.9452 374.5,20.5C 374.5,21.8333 374.5,23.1667 374.5,24.5C 383.487,23.665 385.82,27.165 381.5,35C 379.19,35.4966 376.857,35.6633 374.5,35.5C 374.666,41.8421 374.5,48.1754 374,54.5C 371.503,56.4782 368.669,56.9782 365.5,56C 364.748,55.3292 364.414,54.4959 364.5,53.5 Z"/></g>
<g><path style="opacity:1" fill="#8e55ff" d="M 79.5,11.5 C 84.2675,11.1908 88.9342,11.6908 93.5,13C 99.2705,15.7476 99.9372,19.4143 95.5,24C 93.8333,24.6667 92.1667,24.6667 90.5,24C 88.3156,21.6321 85.6489,20.9654 82.5,22C 79.6593,25.1588 80.326,27.4922 84.5,29C 98.5306,29.3453 103.697,36.1786 100,49.5C 90.0134,60.0806 80.0134,60.0806 70,49.5C 68.7972,45.0367 70.4639,42.37 75,41.5C 78.063,42.8807 80.8963,44.7141 83.5,47C 89.2052,48.0113 91.2052,45.8446 89.5,40.5C 84.3553,39.1022 79.3553,37.2689 74.5,35C 70.7576,30.483 69.591,25.3163 71,19.5C 73.0738,15.9231 75.9072,13.2565 79.5,11.5 Z"/></g>
<g><path style="opacity:1" fill="#8c53ff" d="M 226.5,20.5 C 221.833,20.5 217.167,20.5 212.5,20.5C 212.5,31.8333 212.5,43.1667 212.5,54.5C 211.508,56.0265 210.008,56.6932 208,56.5C 205.966,56.6464 204.299,55.9797 203,54.5C 202.5,43.1716 202.333,31.8382 202.5,20.5C 197.489,20.6659 192.489,20.4993 187.5,20C 186.167,17.6667 186.167,15.3333 187.5,13C 201.163,12.5001 214.829,12.3334 228.5,12.5C 229.036,15.6981 228.369,18.3647 226.5,20.5 Z"/></g>
<g><path style="opacity:1" fill="#c0a0ff" d="M 226.5,20.5 C 222.366,21.4849 218.032,21.8182 213.5,21.5C 213.828,32.6794 213.495,43.6794 212.5,54.5C 212.5,43.1667 212.5,31.8333 212.5,20.5C 217.167,20.5 221.833,20.5 226.5,20.5 Z"/></g>
<g><path style="opacity:1" fill="#fadfa9" d="M -0.5,7.5 C 21.1667,7.5 42.8333,7.5 64.5,7.5C 64.5,25.8333 64.5,44.1667 64.5,62.5C 59.5,62.5 54.5,62.5 49.5,62.5C 50.1736,59.4741 51.0069,56.4741 52,53.5C 54.5724,52.3084 57.2391,51.3084 60,50.5C 61.0299,50.1639 61.5299,49.4972 61.5,48.5C 59.1877,46.364 56.6877,44.364 54,42.5C 53.5017,39.1832 53.335,35.8499 53.5,32.5C 52.1266,32.3433 50.7932,32.51 49.5,33C 47.5777,34.8758 45.411,36.3758 43,37.5C 40.2094,36.5938 37.3761,35.9272 34.5,35.5C 33.8761,35.9169 33.5427,36.5836 33.5,37.5C 34.1667,39.8333 34.8333,42.1667 35.5,44.5C 33.3588,47.9672 31.6921,51.6339 30.5,55.5C 34.1817,55.3347 37.8484,55.5014 41.5,56C 43.0544,58.2869 44.7211,60.4535 46.5,62.5C 30.8333,62.5 15.1667,62.5 -0.5,62.5C -0.5,44.1667 -0.5,25.8333 -0.5,7.5 Z"/></g>
<g><path style="opacity:1" fill="#f9d482" d="M 51.5,18.5 C 55.4599,21.2919 58.9599,24.6252 62,28.5C 62.8736,31.3787 62.5403,34.0454 61,36.5C 60.1667,26.3333 54.6667,20.8333 44.5,20C 41.6262,19.0575 38.9596,17.8908 36.5,16.5C 38.3786,16.6068 38.7119,16.1068 37.5,15C 28.6275,10.7954 19.7942,10.6288 11,14.5C 10.8333,15.3333 10.6667,16.1667 10.5,17C 10.6842,18.3756 11.3509,19.2089 12.5,19.5C 11.8333,20.1667 11.1667,20.8333 10.5,21.5C 7.98959,13.4758 11.1563,9.47579 20,9.5C 30.828,10.4426 40.828,13.776 50,19.5C 50.7648,19.4301 51.2648,19.0967 51.5,18.5 Z"/></g>
<g><path style="opacity:1" fill="#fbab18" d="M 51.5,18.5 C 51.2648,19.0967 50.7648,19.4301 50,19.5C 40.828,13.776 30.828,10.4426 20,9.5C 11.1563,9.47579 7.98959,13.4758 10.5,21.5C 15.6142,29.1538 22.4476,34.8205 31,38.5C 31.4935,40.1341 31.6602,41.8008 31.5,43.5C 22.4108,41.035 14.5775,36.3683 8,29.5C 6.07973,26.6612 4.41306,23.6612 3,20.5C 1.74023,15.1862 3.57357,11.3529 8.5,9C 24.3603,5.79435 38.6937,8.96102 51.5,18.5 Z"/></g>
<g><path style="opacity:1" fill="#fbcd25" d="M 36.5,16.5 C 30.2767,14.7314 23.9433,14.2314 17.5,15C 14.8854,15.6119 13.2187,17.1119 12.5,19.5C 11.3509,19.2089 10.6842,18.3756 10.5,17C 10.6667,16.1667 10.8333,15.3333 11,14.5C 19.7942,10.6288 28.6275,10.7954 37.5,15C 38.7119,16.1068 38.3786,16.6068 36.5,16.5 Z"/></g>
<g><path style="opacity:1" fill="#8e55ff" d="M 336.5,24.5 C 340.846,24.3343 345.179,24.501 349.5,25C 356.123,26.2025 357.123,29.2025 352.5,34C 349.705,33.7093 346.871,33.2093 344,32.5C 340.112,32.5376 339.612,33.7042 342.5,36C 353.025,35.518 357.525,40.3513 356,50.5C 354.833,53 353,54.8333 350.5,56C 345.5,56.6667 340.5,56.6667 335.5,56C 329.219,53.0917 328.886,49.5917 334.5,45.5C 336.61,46.0544 338.61,46.8877 340.5,48C 342.579,48.8077 344.579,48.641 346.5,47.5C 346.291,46.914 345.957,46.414 345.5,46C 334.673,45.5172 330.173,40.0172 332,29.5C 333.025,27.313 334.525,25.6464 336.5,24.5 Z"/></g>
<g><path style="opacity:1" fill="#cbb0ff" d="M 364.5,19.5 C 364.5,21.5 364.5,23.5 364.5,25.5C 363.167,25.5 361.833,25.5 360.5,25.5C 361.209,24.596 362.209,24.2627 363.5,24.5C 363.216,22.5853 363.549,20.9187 364.5,19.5 Z"/></g>
<g><path style="opacity:1" fill="#8f56ff" d="M 114.5,24.5 C 120.434,23.8887 126.1,24.722 131.5,27C 136.698,32.811 136.698,38.4777 131.5,44C 126.167,44.3333 120.833,44.6667 115.5,45C 116.167,45.6667 116.833,46.3333 117.5,47C 122.201,47.3932 126.868,47.3932 131.5,47C 136.129,52.431 134.796,55.7643 127.5,57C 110.667,58.8333 103.167,51.3333 105,34.5C 107.022,29.98 110.189,26.6467 114.5,24.5 Z"/></g>
<g><path style="opacity:1" fill="#8e55ff" d="M 165.5,43.5 C 160.125,43.1718 154.792,43.5052 149.5,44.5C 149.624,45.1067 149.957,45.44 150.5,45.5C 150.611,46.1174 150.944,46.6174 151.5,47C 156.201,47.3932 160.868,47.3932 165.5,47C 169.701,50.5228 169.368,53.5228 164.5,56C 146.167,60.3274 137.667,53.1607 139,34.5C 143.757,25.2124 151.257,22.0457 161.5,25C 169.433,28.5882 171.6,34.4215 168,42.5C 167.329,43.2524 166.496,43.5858 165.5,43.5 Z"/></g>
<g><path style="opacity:1" fill="#8e55ff" d="M 398.5,23.5 C 412.21,23.3784 419.043,30.0451 419,43.5C 414.736,55.3754 406.57,59.2088 394.5,55C 385.221,48.497 383.387,40.3303 389,30.5C 391.79,27.535 394.957,25.2016 398.5,23.5 Z"/></g>
<g><path style="opacity:1" fill="#9058ff" d="M 233.5,24.5 C 237.287,23.8144 240.454,24.8144 243,27.5C 247.076,23.966 251.409,23.6326 256,26.5C 257.012,33.8251 254.012,36.4918 247,34.5C 245.289,34.4393 243.956,35.1059 243,36.5C 242.667,42.5 242.333,48.5 242,54.5C 238.667,57.1667 235.333,57.1667 232,54.5C 231.333,45.1667 231.333,35.8333 232,26.5C 232.717,25.9558 233.217,25.2891 233.5,24.5 Z"/></g>
<g><path style="opacity:1" fill="#8e54ff" d="M 268.5,24.5 C 272.634,23.9429 276.301,24.9429 279.5,27.5C 282.635,23.9349 286.135,23.6015 290,26.5C 290.667,35.8333 290.667,45.1667 290,54.5C 286.135,57.3985 282.635,57.0651 279.5,53.5C 272.126,58.322 265.959,56.9886 261,49.5C 257.735,43.4717 257.735,37.4717 261,31.5C 263.396,28.9334 265.896,26.6 268.5,24.5 Z"/></g>
<g><path style="opacity:1" fill="#9057ff" d="M 296.5,24.5 C 300.287,23.8144 303.454,24.8144 306,27.5C 315.465,22.6616 322.131,25.3282 326,35.5C 326.667,41.8333 326.667,48.1667 326,54.5C 322.667,57.1667 319.333,57.1667 316,54.5C 315.667,48.8333 315.333,43.1667 315,37.5C 312,34.8333 309,34.8333 306,37.5C 305.667,43.1667 305.333,48.8333 305,54.5C 301.667,57.1667 298.333,57.1667 295,54.5C 294.333,45.1667 294.333,35.8333 295,26.5C 295.717,25.9558 296.217,25.2891 296.5,24.5 Z"/></g>
<g><path style="opacity:1" fill="#8e55ff" d="M 424.5,24.5 C 428.219,23.7717 431.219,24.7717 433.5,27.5C 437.439,23.9859 441.605,23.6525 446,26.5C 447.686,33.8692 445.019,36.5359 438,34.5C 436.289,34.4393 434.956,35.1059 434,36.5C 433.667,42.5 433.333,48.5 433,54.5C 429.667,57.1667 426.333,57.1667 423,54.5C 422.333,45.1667 422.333,35.8333 423,26.5C 423.717,25.9558 424.217,25.2891 424.5,24.5 Z"/></g>
<g><path style="opacity:1" fill="#8f57ff" d="M 451.5,24.5 C 455.287,23.8144 458.454,24.8144 461,27.5C 466.583,23.1507 471.583,23.8173 476,29.5C 484.385,21.9376 491.051,23.271 496,33.5C 496.667,40.5 496.667,47.5 496,54.5C 492.667,57.1667 489.333,57.1667 486,54.5C 485.667,48.5 485.333,42.5 485,36.5C 483,35.1667 481,35.1667 479,36.5C 478.667,42.5 478.333,48.5 478,54.5C 474.667,57.1667 471.333,57.1667 468,54.5C 467.667,48.5 467.333,42.5 467,36.5C 465,35.1667 463,35.1667 461,36.5C 460.667,42.5 460.333,48.5 460,54.5C 456.667,57.1667 453.333,57.1667 450,54.5C 449.333,45.1667 449.333,35.8333 450,26.5C 450.717,25.9558 451.217,25.2891 451.5,24.5 Z"/></g>
<g><path style="opacity:1" fill="#f7f3ff" d="M 118.5,33.5 C 120.199,33.3398 121.866,33.5065 123.5,34C 125.007,34.8373 125.507,36.0039 125,37.5C 121.875,38.7874 118.709,38.7874 115.5,37.5C 116.524,36.1482 117.524,34.8149 118.5,33.5 Z"/></g>
<g><path style="opacity:1" fill="#f6f2ff" d="M 152.5,33.5 C 154.591,33.3184 156.591,33.6518 158.5,34.5C 159.583,35.365 159.749,36.365 159,37.5C 155.875,38.7874 152.709,38.7874 149.5,37.5C 150.524,36.1482 151.524,34.8149 152.5,33.5 Z"/></g>
<g><path style="opacity:1" fill="#f8f4ff" d="M 271.5,35.5 C 276.083,34.343 278.75,36.0096 279.5,40.5C 277.049,46.2233 273.549,46.89 269,42.5C 268.333,41.1667 268.333,39.8333 269,38.5C 270.045,37.6266 270.878,36.6266 271.5,35.5 Z"/></g>
<g><path style="opacity:1" fill="#ccb2ff" d="M 360.5,34.5 C 361.833,34.5 363.167,34.5 364.5,34.5C 364.5,40.8333 364.5,47.1667 364.5,53.5C 363.51,47.69 363.177,41.69 363.5,35.5C 362.209,35.7373 361.209,35.404 360.5,34.5 Z"/></g>
<g><path style="opacity:1" fill="#f8f4ff" d="M 399.5,34.5 C 407.744,34.2276 410.078,37.7276 406.5,45C 399.244,47.6255 396.078,45.1255 397,37.5C 398.045,36.6266 398.878,35.6266 399.5,34.5 Z"/></g>
<g><path style="opacity:1" fill="#fdf3c5" d="M 51.5,43.5 C 51.5654,43.9382 51.3988,44.2716 51,44.5C 46.1174,42.9753 41.2841,41.3087 36.5,39.5C 36.5,39.1667 36.5,38.8333 36.5,38.5C 38.7647,37.6576 41.098,37.9909 43.5,39.5C 46.0094,38.0787 48.3428,36.4121 50.5,34.5C 51.4841,37.4281 51.8174,40.4281 51.5,43.5 Z"/></g>
<g><path style="opacity:1" fill="#f8cf39" d="M 5.5,29.5 C 12.0927,36.5821 19.926,41.9154 29,45.5C 30.2575,45.8499 30.5908,46.5165 30,47.5C 27.9361,48.5914 25.7695,48.7581 23.5,48C 17.1925,44.9263 11.6925,40.7596 7,35.5C 5.87201,33.6547 5.37201,31.6547 5.5,29.5 Z"/></g>
<g><path style="opacity:1" fill="#c3a5ff" d="M 165.5,43.5 C 160.5,44.1667 155.5,44.8333 150.5,45.5C 149.957,45.44 149.624,45.1067 149.5,44.5C 154.792,43.5052 160.125,43.1718 165.5,43.5 Z"/></g>
<g><path style="opacity:1" fill="#fde583" d="M 36.5,39.5 C 41.2841,41.3087 46.1174,42.9753 51,44.5C 51.3988,44.2716 51.5654,43.9382 51.5,43.5C 53.95,44.7765 56.2833,46.2765 58.5,48C 57.6667,48.1667 56.8333,48.3333 56,48.5C 49.7515,46.9136 43.5848,45.247 37.5,43.5C 37.1667,42.1667 36.8333,40.8333 36.5,39.5 Z"/></g>
<g><path style="opacity:1" fill="#fbd34a" d="M 61.5,48.5 C 58.1789,49.4955 54.8456,50.4955 51.5,51.5C 50.8281,52.9492 50.1614,54.2825 49.5,55.5C 49.4226,54.2502 48.756,53.4169 47.5,53C 43.7189,51.2199 39.7189,50.0532 35.5,49.5C 36.6298,47.6854 37.2964,45.6854 37.5,43.5C 43.5848,45.247 49.7515,46.9136 56,48.5C 56.8333,48.3333 57.6667,48.1667 58.5,48C 56.2833,46.2765 53.95,44.7765 51.5,43.5C 51.8174,40.4281 51.4841,37.4281 50.5,34.5C 48.3428,36.4121 46.0094,38.0787 43.5,39.5C 41.098,37.9909 38.7647,37.6576 36.5,38.5C 35.0937,38.0269 34.427,37.0269 34.5,35.5C 37.3761,35.9272 40.2094,36.5938 43,37.5C 45.411,36.3758 47.5777,34.8758 49.5,33C 50.7932,32.51 52.1266,32.3433 53.5,32.5C 53.335,35.8499 53.5017,39.1832 54,42.5C 56.6877,44.364 59.1877,46.364 61.5,48.5 Z"/></g>
<g><path style="opacity:1" fill="#f7ae25" d="M 34.5,35.5 C 34.427,37.0269 35.0937,38.0269 36.5,38.5C 36.5,38.8333 36.5,39.1667 36.5,39.5C 36.8333,40.8333 37.1667,42.1667 37.5,43.5C 37.2964,45.6854 36.6298,47.6854 35.5,49.5C 34.1882,50.1451 33.1882,51.1451 32.5,52.5C 35.7848,53.3236 39.1182,53.8236 42.5,54C 43.9752,56.3092 45.6419,58.4759 47.5,60.5C 48.9501,59.1502 49.6168,57.4835 49.5,55.5C 50.1614,54.2825 50.8281,52.9492 51.5,51.5C 54.8456,50.4955 58.1789,49.4955 61.5,48.5C 61.5299,49.4972 61.0299,50.1639 60,50.5C 57.2391,51.3084 54.5724,52.3084 52,53.5C 51.0069,56.4741 50.1736,59.4741 49.5,62.5C 48.5,62.5 47.5,62.5 46.5,62.5C 44.7211,60.4535 43.0544,58.2869 41.5,56C 37.8484,55.5014 34.1817,55.3347 30.5,55.5C 31.6921,51.6339 33.3588,47.9672 35.5,44.5C 34.8333,42.1667 34.1667,39.8333 33.5,37.5C 33.5427,36.5836 33.8761,35.9169 34.5,35.5 Z"/></g>
<g><path style="opacity:1" fill="#fce790" d="M 35.5,49.5 C 39.7189,50.0532 43.7189,51.2199 47.5,53C 48.756,53.4169 49.4226,54.2502 49.5,55.5C 49.6168,57.4835 48.9501,59.1502 47.5,60.5C 45.6419,58.4759 43.9752,56.3092 42.5,54C 39.1182,53.8236 35.7848,53.3236 32.5,52.5C 33.1882,51.1451 34.1882,50.1451 35.5,49.5 Z"/></g>
</svg>
